{
  "accessors": [
    {
      "bufferView": 2,
      "componentType": 5126,
      "count": 1710,
      "max": [
        0.66426098346710205,
        0.41615200042724609,
        0.12479200214147568
      ],
      "min": [
        -0.71638602018356323,
        -0.19385099411010742,
        -0.13552300631999969
      ],
      "type": "VEC3"
    },
    {
      "bufferView": 2,
      "byteOffset": 20520,
      "componentType": 5126,
      "count": 1710,
      "max": [
        0.99220758676528931,
        0.99360603094100952,
        0.99998652935028076
      ],
      "min": [
        -0.98864126205444336,
        -0.99952691793441772,
        -0.99937701225280762
      ],
      "type": "VEC3"
    },
    {
      "bufferView": 1,
      "componentType": 5126,
      "count": 1710,
      "max": [
        0.93000197410583496,
        0.96625298261642456
      ],
      "min": [
        0.10361400246620178,
        0.03527199849486351
      ],
      "type": "VEC2"
    },
    {
      "bufferView": 0,
      "componentType": 5125,
      "count": 9468,
      "max": [
        1709
      ],
      "min": [
        0
      ],
      "type": "SCALAR"
    }
  ],
  "asset": {
    "extras": {
      "author": "firehawksoftware (https://sketchfab.com/firehawk77028)",
      "license": "CC-BY-NC-4.0 (http://creativecommons.org/licenses/by-nc/4.0/)",
      "source": "https://sketchfab.com/3d-models/banana-ada7c35a1a5742f1b4c528eb3daee35b",
      "title": "Banana"
    },
    "generator": "Sketchfab-7.72.0",
    "version": "2.0"
  },
  "bufferViews": [
    {
      "buffer": 0,
      "byteLength": 37872,
      "byteOffset": 0,
      "name": "floatBufferViews",
      "target": 34963
    },
    {
      "buffer": 0,
      "byteLength": 13680,
      "byteOffset": 37872,
      "byteStride": 8,
      "name": "floatBufferViews",
      "target": 34962
    },
    {
      "buffer": 0,
      "byteLength": 41040,
      "byteOffset": 51552,
      "byteStride": 12,
      "name": "floatBufferViews",
      "target": 34962
    }
  ],
  "buffers": [
    {
      "byteLength": 92592,
      "uri": "scene.bin"
    }
  ],
  "images": [
    {
      "uri": "textures/Diffuse_baseColor.png"
    }
  ],
  "materials": [
    {
      "doubleSided": true,
      "emissiveFactor": [
        0,
        0,
        0
      ],
      "name": "Diffuse",
      "pbrMetallicRoughness": {
        "baseColorFactor": [
          1,
          1,
          1,
          1
        ],
        "baseColorTexture": {
          "index": 0,
          "texCoord": 0
        },
        "metallicFactor": 0,
        "roughnessFactor": 0.80635083268962915
      }
    }
  ],
  "meshes": [
    {
      "primitives": [
        {
          "attributes": {
            "NORMAL": 1,
            "POSITION": 0,
            "TEXCOORD_0": 2
          },
          "indices": 3,
          "material": 0,
          "mode": 4
        }
      ]
    }
  ],
  "nodes": [
    {
      "children": [
        1
      ],
      "name": "RootNode (gltf orientation matrix)",
      "rotation": [
        -0.70710678118654746,
        -0,
        -0,
        0.70710678118654757
      ]
    },
    {
      "children": [
        2
      ],
      "matrix": [
        1,
        -2.832769343193999e-16,
        2.832769343193999e-16,
        0,
        -2.832769343193999e-16,
        -4.4408920985006262e-16,
        1,
        0,
        -2.832769343193999e-16,
        -1,
        -4.4408920985006262e-16,
        0,
        3.1225022567582528e-17,
        0.10578545182943344,
        -0.11651650816202164,
        1
      ],
      "name": "RootNode (model correction matrix)"
    },
    {
      "children": [
        3
      ],
      "name": "export_banana.obj.cleaner.materialmerger.gles"
    },
    {
      "mesh": 0,
      "name": ""
    }
  ],
  "samplers": [
    {
      "magFilter": 9729,
      "minFilter": 9987,
      "wrapS": 10497,
      "wrapT": 10497
    }
  ],
  "scene": 0,
  "scenes": [
    {
      "name": "OSG_Scene",
      "nodes": [
        0
      ]
    }
  ],
  "textures": [
    {
      "sampler": 0,
      "source": 0
    }
  ]
}

