<?xml version="1.0" encoding="UTF-8" standalone="no"?>
<svg
   xmlns:dc="http://purl.org/dc/elements/1.1/"
   xmlns:cc="http://creativecommons.org/ns#"
   xmlns:rdf="http://www.w3.org/1999/02/22-rdf-syntax-ns#"
   xmlns:svg="http://www.w3.org/2000/svg"
   xmlns="http://www.w3.org/2000/svg"
   xmlns:sodipodi="http://sodipodi.sourceforge.net/DTD/sodipodi-0.dtd"
   xmlns:inkscape="http://www.inkscape.org/namespaces/inkscape"
   version="1.1"
   id="Capa_1"
   x="0px"
   y="0px"
   viewBox="0 0 512 512"
   style="enable-background:new 0 0 512 512;"
   xml:space="preserve"
   sodipodi:docname="coding.svg"
   inkscape:version="1.0.1 (3bc2e813f5, 2020-09-07)"><metadata
   id="metadata1378"><rdf:RDF><cc:Work
       rdf:about=""><dc:format>image/svg+xml</dc:format><dc:type
         rdf:resource="http://purl.org/dc/dcmitype/StillImage" /></cc:Work></rdf:RDF></metadata><defs
   id="defs1376" /><sodipodi:namedview
   pagecolor="#ffffff"
   bordercolor="#666666"
   borderopacity="1"
   objecttolerance="10"
   gridtolerance="10"
   guidetolerance="10"
   inkscape:pageopacity="0"
   inkscape:pageshadow="2"
   inkscape:window-width="1500"
   inkscape:window-height="1664"
   id="namedview1374"
   showgrid="false"
   inkscape:zoom="1.7578125"
   inkscape:cx="256"
   inkscape:cy="256"
   inkscape:window-x="1572"
   inkscape:window-y="27"
   inkscape:window-maximized="0"
   inkscape:current-layer="Capa_1" />
<g
   id="g1299">
	<g
   id="g1297">
		<path
   d="M 458.667,0 H 53.333 C 23.893,0.035 7.8995833,23.034458 7.8645833,52.474458 L 8.3344444,458.38156 c 0.035,29.441 16.4901526,47.00205 45.9301526,47.03705 l 405.662513,0.66945 c 29.441,-0.035 43.34092,-17.24467 43.37592,-46.68467 L 504.14067,52.717479 C 504.10667,23.277479 488.107,0.035 458.667,0 Z m 32,458.667 c 0,17.673 -14.327,32 -32,32 H 53.333 c -17.673,0 -32,-14.327 -32,-32 V 53.333 c 0,-17.673 14.327,-32 32,-32 h 405.333 c 17.673,0 32,14.327 32,32 v 405.334 z"
   id="path1295"
   sodipodi:nodetypes="ccccccccccssssssscc" />
	</g>
</g>
<g
   id="g1305">
	<g
   id="g1303">
		<rect
   x="42.667"
   y="85.333"
   width="426.667"
   height="21.333"
   id="rect1301" />
	</g>
</g>
<g
   id="g1311">
	<g
   id="g1309">
		<rect
   x="53.333"
   y="42.667"
   width="21.333"
   height="21.333"
   id="rect1307" />
	</g>
</g>
<g
   id="g1317">
	<g
   id="g1315">
		<rect
   x="96"
   y="42.667"
   width="21.333"
   height="21.333"
   id="rect1313" />
	</g>
</g>
<g
   id="g1323">
	<g
   id="g1321">
		<rect
   x="437.333"
   y="42.667"
   width="21.333"
   height="21.333"
   id="rect1319" />
	</g>
</g>
<g
   id="g1329">
	<g
   id="g1327">
		<path
   d="M448,128H138.667v21.333H448V448H64V256H42.667v192c0,11.782,9.551,21.333,21.333,21.333h384    c11.782,0,21.333-9.551,21.333-21.333V149.333C469.333,137.551,459.782,128,448,128z"
   id="path1325" />
	</g>
</g>
<g
   id="g1335">
	<g
   id="g1333">
		<path
   d="M114.208,173.792l-42.667-42.667l-15.083,15.083l35.125,35.125l-35.125,35.125l15.083,15.083l42.667-42.667    C118.372,184.709,118.372,177.957,114.208,173.792z"
   id="path1331" />
	</g>
</g>
<g
   id="g1341">
	<g
   id="g1339">
		<rect
   x="128"
   y="202.667"
   width="64"
   height="21.333"
   id="rect1337" />
	</g>
</g>
<g
   id="g1343">
</g>
<g
   id="g1345">
</g>
<g
   id="g1347">
</g>
<g
   id="g1349">
</g>
<g
   id="g1351">
</g>
<g
   id="g1353">
</g>
<g
   id="g1355">
</g>
<g
   id="g1357">
</g>
<g
   id="g1359">
</g>
<g
   id="g1361">
</g>
<g
   id="g1363">
</g>
<g
   id="g1365">
</g>
<g
   id="g1367">
</g>
<g
   id="g1369">
</g>
<g
   id="g1371">
</g>
</svg>
