<?xml version="1.0" encoding="UTF-8" standalone="no"?>
<svg
   xmlns:dc="http://purl.org/dc/elements/1.1/"
   xmlns:cc="http://creativecommons.org/ns#"
   xmlns:rdf="http://www.w3.org/1999/02/22-rdf-syntax-ns#"
   xmlns:svg="http://www.w3.org/2000/svg"
   xmlns="http://www.w3.org/2000/svg"
   xmlns:sodipodi="http://sodipodi.sourceforge.net/DTD/sodipodi-0.dtd"
   xmlns:inkscape="http://www.inkscape.org/namespaces/inkscape"
   version="1.1"
   id="Capa_1"
   x="0px"
   y="0px"
   viewBox="0 0 58 58"
   style="enable-background:new 0 0 58 58;"
   xml:space="preserve"
   sodipodi:docname="cube.svg"
   inkscape:version="1.0.1 (3bc2e813f5, 2020-09-07)"><metadata
   id="metadata1350"><rdf:RDF><cc:Work
       rdf:about=""><dc:format>image/svg+xml</dc:format><dc:type
         rdf:resource="http://purl.org/dc/dcmitype/StillImage" /></cc:Work></rdf:RDF></metadata><defs
   id="defs1348" /><sodipodi:namedview
   pagecolor="#ffffff"
   bordercolor="#666666"
   borderopacity="1"
   objecttolerance="10"
   gridtolerance="10"
   guidetolerance="10"
   inkscape:pageopacity="0"
   inkscape:pageshadow="2"
   inkscape:window-width="1876"
   inkscape:window-height="2089"
   id="namedview1346"
   showgrid="false"
   inkscape:zoom="21.741379"
   inkscape:cx="29"
   inkscape:cy="15.280635"
   inkscape:window-x="1964"
   inkscape:window-y="34"
   inkscape:window-maximized="0"
   inkscape:current-layer="g1313"
   inkscape:document-rotation="0" />
<g
   id="g1313">
	<polygon
   style="fill:#162650;fill-opacity:1"
   points="29,58 3,45 3,13 29,26  "
   id="polygon1307" />
	<polygon
   style="fill:#2d508c;fill-opacity:1"
   points="29,58 55,45 55,13 29,26  "
   id="polygon1309" />
	<polygon
   style="fill:#7f99c5;fill-opacity:1"
   points="3,13 28,0 55,13 29,26  "
   id="polygon1311" />
<g
   aria-label="Q"
   id="text1471"
   style="font-style:normal;font-variant:normal;font-weight:normal;font-stretch:normal;font-size:10.5833px;line-height:1.25;font-family:'Montserrat Alternates';-inkscape-font-specification:'Montserrat Alternates';fill:#ebf0ff;fill-opacity:1;stroke:none;stroke-width:0.264583"
   transform="matrix(1.6629279,0,0,1.6629279,-194.11201,-166.84447)"><path
     d="m 129.684,122.779 c 0,0.637 -0.135,1.151 -0.403,1.54 -0.262,0.393 -0.63,0.631 -1.104,0.717 -0.468,0.081 -0.999,0 -1.591,-0.242 v 1.318 l -0.684,-0.341 v -1.319 c -0.592,-0.35 -1.126,-0.805 -1.6,-1.364 -0.468,-0.556 -0.836,-1.16 -1.104,-1.811 -0.263,-0.654 -0.394,-1.3 -0.394,-1.938 0,-0.678 0.147,-1.215 0.44,-1.612 0.3,-0.394 0.712,-0.614 1.236,-0.661 0.53,-0.05 1.12,0.087 1.769,0.411 0.649,0.325 1.232,0.771 1.75,1.339 0.524,0.57 0.936,1.206 1.235,1.906 0.3,0.693 0.45,1.379 0.45,2.057 z m -3.117,1.341 c 0.468,0.187 0.886,0.242 1.254,0.164 0.368,-0.085 0.655,-0.287 0.861,-0.607 0.206,-0.319 0.309,-0.734 0.309,-1.245 0,-0.55 -0.119,-1.106 -0.356,-1.667 -0.237,-0.562 -0.564,-1.075 -0.982,-1.539 -0.418,-0.464 -0.886,-0.825 -1.404,-1.084 -0.518,-0.259 -0.989,-0.367 -1.414,-0.324 -0.418,0.046 -0.748,0.229 -0.992,0.551 -0.237,0.324 -0.355,0.761 -0.355,1.312 0,0.51 0.103,1.028 0.309,1.554 0.212,0.529 0.502,1.016 0.87,1.462 0.368,0.446 0.786,0.812 1.254,1.1 v -1.742 l 0.646,0.323 z"
     style="font-style:normal;font-variant:normal;font-weight:normal;font-stretch:normal;font-family:'Montserrat Alternates';-inkscape-font-specification:'Montserrat Alternates';fill:#ebf0ff;fill-opacity:1;stroke-width:0.264583"
     id="path1473" /></g></g>
<g
   id="g1315">
</g>
<g
   id="g1317">
</g>
<g
   id="g1319">
</g>
<g
   id="g1321">
</g>
<g
   id="g1323">
</g>
<g
   id="g1325">
</g>
<g
   id="g1327">
</g>
<g
   id="g1329">
</g>
<g
   id="g1331">
</g>
<g
   id="g1333">
</g>
<g
   id="g1335">
</g>
<g
   id="g1337">
</g>
<g
   id="g1339">
</g>
<g
   id="g1341">
</g>
<g
   id="g1343">
</g>
</svg>
