<?xml version="1.0" encoding="UTF-8" standalone="no"?>
<svg
   xmlns:dc="http://purl.org/dc/elements/1.1/"
   xmlns:cc="http://creativecommons.org/ns#"
   xmlns:rdf="http://www.w3.org/1999/02/22-rdf-syntax-ns#"
   xmlns:svg="http://www.w3.org/2000/svg"
   xmlns="http://www.w3.org/2000/svg"
   xmlns:sodipodi="http://sodipodi.sourceforge.net/DTD/sodipodi-0.dtd"
   xmlns:inkscape="http://www.inkscape.org/namespaces/inkscape"
   version="1.1"
   id="Layer_1"
   x="0px"
   y="0px"
   viewBox="0 0 128 128"
   xml:space="preserve"
   sodipodi:docname="ethereum-white.svg"
   inkscape:version="1.0.1 (3bc2e813f5, 2020-09-07)"><defs
     id="defs889" /><sodipodi:namedview
     pagecolor="#ffffff"
     bordercolor="#666666"
     borderopacity="1"
     objecttolerance="10"
     gridtolerance="10"
     guidetolerance="10"
     inkscape:pageopacity="0"
     inkscape:pageshadow="2"
     inkscape:window-width="3000"
     inkscape:window-height="1664"
     id="namedview887"
     showgrid="false"
     inkscape:zoom="7.03125"
     inkscape:cx="64"
     inkscape:cy="58.311111"
     inkscape:window-x="72"
     inkscape:window-y="27"
     inkscape:window-maximized="1"
     inkscape:current-layer="Layer_1" /><path
     d="M103.2 63.6v-.2c0-.1 0-.1-.1-.2V63c0-.1-.1-.1-.1-.2 0 0 0-.1-.1-.1L65.7 1c-.1-.1-.2-.3-.3-.4h-.1c-.1-.1-.2-.2-.3-.2 0 0-.1 0-.1-.1-.1-.1-.2-.1-.3-.1h-.1c-.2-.2-.3-.2-.5-.2s-.3 0-.5.1h-.1c-.1 0-.2.1-.3.1 0 0-.1 0-.1.1-.1.1-.2.1-.3.2h-.1c-.1.1-.2.2-.3.4L25.1 62.7s0 .1-.1.1c0 .1-.1.1-.1.2v.2c0 .1 0 .1-.1.2v.8c0 .1 0 .1.1.2v.1c.1.2.2.3.3.4l.1.1.3.3s.1 0 .1.1L63 87.2h.1c.1.1.2.1.3.1h.1c.2 0 .3.1.5.1s.3 0 .5-.1h.1c.1 0 .2-.1.3-.1h.1l37.2-21.7c.1 0 .1-.1.2-.1l.1-.1.2-.2.1-.1c0-.1.1-.1.1-.2s.1-.1.1-.2 0-.1.1-.2c0-.1 0-.1.1-.2V64v-.2-.2zM62 45.6L31.9 59.3 62 9.2v36.4zm0 4.4v32L31.2 64 62 50zm4 0l30.8 14L66 82V50zm0-4.4V9.2l30.1 50.1L66 45.6z"
     id="path880"
     style="fill:#ffffff;fill-opacity:1" /><path
     d="M100.1 72L64 93.7 27.9 72c-.8-.5-1.9-.3-2.5.4-.6.7-.7 1.7-.2 2.5l37.2 52.2.1.1c.1.1.1.2.2.2l.1.1c.1.1.2.1.2.2 0 0 .1 0 .1.1.1 0 .2.1.3.1h.1c.1 0 .3.1.4.1.2 0 .3 0 .4-.1h.1c.1 0 .2-.1.3-.1 0 0 .1 0 .1-.1.1 0 .2-.1.2-.2l.1-.1.2-.2.1-.1 37.2-52.2c.5-.8.5-1.8-.2-2.5s-1.4-.8-2.3-.4zM62 97.1v22.6L34 80.4l28 16.7zm4 22.6V97.1l28-16.8-28 39.4z"
     id="path882"
     style="fill:#ffffff;fill-opacity:1" /><metadata
     id="metadata884"><rdf:RDF><rdf:Description
         about="https://iconscout.com/legal#licenses"
         dc:title="ethereum"
         dc:description="ethereum"
         dc:publisher="Iconscout"
         dc:date="2018-01-14"
         dc:format="image/svg+xml"
         dc:language="en"><dc:creator><rdf:Bag><rdf:li>Icon Mafia</rdf:li></rdf:Bag></dc:creator></rdf:Description><cc:Work
         rdf:about=""><dc:format>image/svg+xml</dc:format><dc:type
           rdf:resource="http://purl.org/dc/dcmitype/StillImage" /><dc:title></dc:title></cc:Work></rdf:RDF></metadata></svg>
