<?xml version="1.0" encoding="UTF-8" standalone="no"?>
<svg
   xmlns:dc="http://purl.org/dc/elements/1.1/"
   xmlns:cc="http://creativecommons.org/ns#"
   xmlns:rdf="http://www.w3.org/1999/02/22-rdf-syntax-ns#"
   xmlns:svg="http://www.w3.org/2000/svg"
   xmlns="http://www.w3.org/2000/svg"
   xmlns:sodipodi="http://sodipodi.sourceforge.net/DTD/sodipodi-0.dtd"
   xmlns:inkscape="http://www.inkscape.org/namespaces/inkscape"
   version="1.1"
   id="Capa_1"
   x="0px"
   y="0px"
   viewBox="0 0 480 480"
   style="enable-background:new 0 0 480 480;"
   xml:space="preserve"
   sodipodi:docname="ethereum-2.svg"
   inkscape:version="1.0.1 (3bc2e813f5, 2020-09-07)"><metadata
   id="metadata1208"><rdf:RDF><cc:Work
       rdf:about=""><dc:format>image/svg+xml</dc:format><dc:type
         rdf:resource="http://purl.org/dc/dcmitype/StillImage" /></cc:Work></rdf:RDF></metadata><defs
   id="defs1206" /><sodipodi:namedview
   pagecolor="#ffffff"
   bordercolor="#666666"
   borderopacity="1"
   objecttolerance="10"
   gridtolerance="10"
   guidetolerance="10"
   inkscape:pageopacity="0"
   inkscape:pageshadow="2"
   inkscape:window-width="3752"
   inkscape:window-height="2089"
   id="namedview1204"
   showgrid="false"
   inkscape:zoom="1.9125"
   inkscape:cx="240"
   inkscape:cy="240"
   inkscape:window-x="88"
   inkscape:window-y="34"
   inkscape:window-maximized="1"
   inkscape:current-layer="g1111" />
<g
   id="g1105"
   style="fill:#1a60d5;fill-opacity:1">
	<g
   id="g1103"
   style="fill:#1a60d5;fill-opacity:1">
		<path
   d="M480,16V0H288c-2.128,0-4.16,0.84-5.656,2.344L236.688,48h-73.376l-21.656-21.656C140.16,24.84,138.128,24,136,24h-24v16    h20.688l21.656,21.656C155.84,63.16,157.872,64,160,64h145.472c3.312,9.288,12.112,16,22.528,16s19.216-6.712,22.528-16h30.16    l13.656,13.656C395.84,79.16,397.872,80,400,80h80V64h-76.688l-13.656-13.656C388.16,48.84,386.128,48,384,48h-33.472    c-3.312-9.288-12.112-16-22.528-16c-10.416,0-19.216,6.712-22.528,16h-46.16l32-32H480z M328,48c4.416,0,8,3.592,8,8s-3.584,8-8,8    c-4.416,0-8-3.592-8-8S323.584,48,328,48z"
   id="path1101"
   style="fill:#1a60d5;fill-opacity:1" />
	</g>
</g>
<g
   id="g1111">
	<g
   id="g1109"
   style="fill:#1a60d5;fill-opacity:1">
		<path
   d="M397.656,141.656L419.312,120H480v-16h-64c-2.128,0-4.16,0.84-5.656,2.344L388.688,128H342.4    c-27.048-24.752-62.936-40-102.4-40c-30.056,0-58.032,8.88-81.648,24h-43.04L85.656,82.344C84.16,80.84,82.128,80,80,80H62.528    C59.216,70.712,50.416,64,40,64s-19.216,6.712-22.528,16H0v16h17.472c3.312,9.288,12.112,16,22.528,16s19.216-6.712,22.528-16    h14.16l29.656,29.656C107.84,127.16,109.872,128,112,128h25.6c-16.832,15.4-30.2,34.464-38.776,56H83.312l-21.656-21.656    C60.16,160.84,58.128,160,56,160H0v16h52.688l21.656,21.656C75.84,199.16,77.872,200,80,200h13.52    c-2.816,10.28-4.536,20.976-5.112,32H32v16h56.408c0.576,11.024,2.304,21.72,5.112,32H64c-2.128,0-4.16,0.84-5.656,2.344    L36.688,304H0v16h40c2.128,0,4.16-0.84,5.656-2.344L67.312,296h31.512c5.8,14.56,13.696,28.048,23.456,40H96    c-2.128,0-4.16,0.84-5.656,2.344L76.688,352h-14.16c-3.312-9.288-12.112-16-22.528-16s-19.216,6.712-22.528,16H0v16h17.472    c3.312,9.288,12.112,16,22.528,16s19.216-6.712,22.528-16H80c2.128,0,4.16-0.84,5.656-2.344L99.312,352H137.6    c27.048,24.752,62.936,40,102.4,40c30.056,0,58.032-8.88,81.648-24h51.04l29.656,29.656C403.84,399.16,405.872,400,408,400h72v-16    h-68.688l-29.656-29.656C380.16,352.84,378.128,352,376,352h-33.6c12.544-11.48,23.272-24.92,31.416-40h30.872l29.656,29.656    C435.84,343.16,437.872,344,440,344h40v-16h-36.688l-29.656-29.656C412.16,296.84,410.128,296,408,296h-26.824    c5.968-14.984,9.536-31.128,10.416-48H432v-16h-40.408c-0.576-11.024-2.304-21.72-5.112-32H424c2.128,0,4.16-0.84,5.656-2.344    L459.312,168H480v-16h-24c-2.128,0-4.16,0.84-5.656,2.344L420.688,184h-39.512c-5.8-14.56-13.696-28.048-23.456-40H392    C394.128,144,396.16,143.16,397.656,141.656z M40,96c-4.416,0-8-3.592-8-8s3.584-8,8-8s8,3.592,8,8S44.416,96,40,96z M40,368    c-4.416,0-8-3.592-8-8c0-4.408,3.584-8,8-8s8,3.592,8,8C48,364.408,44.416,368,40,368z M376,240c0,74.992-61.008,136-136,136    c-37.44,0-71.384-15.208-96-39.768V336h-0.232C119.208,311.384,104,277.44,104,240c0-74.992,61.008-136,136-136    c37.44,0,71.384,15.208,96,39.768V144h0.232C360.792,168.616,376,202.56,376,240z"
   id="path1107"
   style="fill:#1a60d5;fill-opacity:1" />
	</g>
</g>
<g
   id="g1117"
   style="fill:#1a60d5;fill-opacity:1">
	<g
   id="g1115"
   style="fill:#1a60d5;fill-opacity:1">
		<path
   d="M480,424H344c-2.128,0-4.16,0.84-5.656,2.344L316.688,448h-73.376l-45.656-45.656C196.16,400.84,194.128,400,192,400H0v16    h188.688l32,32h-46.16c-3.312-9.288-12.112-16-22.528-16s-19.216,6.712-22.528,16H96c-2.128,0-4.16,0.84-5.656,2.344L76.688,464H0    v16h80c2.128,0,4.16-0.84,5.656-2.344L99.312,464h30.16c3.312,9.288,12.112,16,22.528,16s19.216-6.712,22.528-16H320    c2.128,0,4.16-0.84,5.656-2.344L347.312,440h17.376l37.656,37.656C403.84,479.16,405.872,480,408,480h72v-16h-68.688l-24-24H480    V424z M152,464c-4.416,0-8-3.592-8-8c0-4.408,3.584-8,8-8s8,3.592,8,8C160,460.408,156.416,464,152,464z"
   id="path1113"
   style="fill:#1a60d5;fill-opacity:1" />
	</g>
</g>
<g
   id="g1123"
   style="fill:#1a60d5;fill-opacity:1">
	<g
   id="g1121"
   style="fill:#1a60d5;fill-opacity:1">
		<rect
   x="448"
   y="232"
   width="32"
   height="16"
   id="rect1119"
   style="fill:#1a60d5;fill-opacity:1" />
	</g>
</g>
<g
   id="g1129"
   style="fill:#1a60d5;fill-opacity:1">
	<g
   id="g1127"
   style="fill:#1a60d5;fill-opacity:1">
		<rect
   y="232"
   width="16"
   height="16"
   id="rect1125"
   style="fill:#1a60d5;fill-opacity:1" />
	</g>
</g>
<g
   id="g1135"
   style="fill:#1a60d5;fill-opacity:1">
	<g
   id="g1133"
   style="fill:#1a60d5;fill-opacity:1">
		<rect
   x="80"
   y="24"
   width="16"
   height="16"
   id="rect1131"
   style="fill:#1a60d5;fill-opacity:1" />
	</g>
</g>
<g
   id="g1141"
   style="fill:#1a60d5;fill-opacity:1">
	<g
   id="g1139"
   style="fill:#1a60d5;fill-opacity:1">
		<rect
   x="48"
   y="24"
   width="16"
   height="16"
   id="rect1137"
   style="fill:#1a60d5;fill-opacity:1" />
	</g>
</g>
<g
   id="g1147"
   style="fill:#1a60d5;fill-opacity:1">
	<g
   id="g1145"
   style="fill:#1a60d5;fill-opacity:1">
		<rect
   y="24"
   width="32"
   height="16"
   id="rect1143"
   style="fill:#1a60d5;fill-opacity:1" />
	</g>
</g>
<g
   id="g1153"
   style="fill:#1a60d5;fill-opacity:1">
	<g
   id="g1151"
   style="fill:#1a60d5;fill-opacity:1">
		<rect
   x="344"
   y="232"
   width="16"
   height="16"
   id="rect1149"
   style="fill:#1a60d5;fill-opacity:1" />
	</g>
</g>
<g
   id="g1159"
   style="fill:#1a60d5;fill-opacity:1">
	<g
   id="g1157"
   style="fill:#1a60d5;fill-opacity:1">
		<rect
   x="120"
   y="232"
   width="16"
   height="16"
   id="rect1155"
   style="fill:#1a60d5;fill-opacity:1" />
	</g>
</g>
<g
   id="g1165"
   style="fill:#1a60d5;fill-opacity:1">
	<g
   id="g1163"
   style="fill:#1a60d5;fill-opacity:1">
		<path
   d="M326.864,267.896c-1.872-3.144-5.672-4.592-9.16-3.56L240,287.648l-77.704-23.312c-3.472-1.032-7.28,0.416-9.168,3.56    c-1.888,3.144-1.384,7.168,1.208,9.76l80,80c1.568,1.56,3.616,2.344,5.664,2.344c2.048,0,4.096-0.784,5.656-2.344l80-80    C328.248,275.064,328.752,271.04,326.864,267.896z M240,340.688l-51.904-51.904l49.608,14.88c1.504,0.448,3.096,0.448,4.592,0    l49.608-14.88L240,340.688z"
   id="path1161"
   style="fill:#1a60d5;fill-opacity:1" />
	</g>
</g>
<g
   id="g1171"
   style="fill:#1a60d5;fill-opacity:1">
	<g
   id="g1169"
   style="fill:#1a60d5;fill-opacity:1">
		<path
   d="M326.488,235.368l0.016-0.016l-80-112c-3-4.208-10.016-4.208-13.016,0l-80,112l0.016,0.016    c-0.944,1.32-1.504,2.92-1.504,4.632c0,3.528,2.32,6.648,5.704,7.664l80,24c0.752,0.224,1.52,0.336,2.296,0.336    s1.544-0.112,2.296-0.336l80-24C325.68,246.648,328,243.528,328,240C328,238.288,327.44,236.688,326.488,235.368z M232,253.248    L187.84,240L232,226.752V253.248z M232,210.048l-51.896,15.568L232,152.968V210.048z M248,253.248v-26.496L292.16,240L248,253.248    z M248,210.048v-57.08l51.896,72.648L248,210.048z"
   id="path1167"
   style="fill:#1a60d5;fill-opacity:1" />
	</g>
</g>
<g
   id="g1173">
</g>
<g
   id="g1175">
</g>
<g
   id="g1177">
</g>
<g
   id="g1179">
</g>
<g
   id="g1181">
</g>
<g
   id="g1183">
</g>
<g
   id="g1185">
</g>
<g
   id="g1187">
</g>
<g
   id="g1189">
</g>
<g
   id="g1191">
</g>
<g
   id="g1193">
</g>
<g
   id="g1195">
</g>
<g
   id="g1197">
</g>
<g
   id="g1199">
</g>
<g
   id="g1201">
</g>
</svg>
